<svg width="32" height="32" viewBox="0 0 32 32" fill="none" xmlns="http://www.w3.org/2000/svg">
<path d="M16 2.66675C8.64002 2.66675 2.66669 8.64008 2.66669 16.0001C2.66669 23.3601 8.64002 29.3334 16 29.3334C23.36 29.3334 29.3334 23.3601 29.3334 16.0001C29.3334 8.64008 23.36 2.66675 16 2.66675ZM9.80002 24.6667C11.5467 23.4134 13.68 22.6667 16 22.6667C18.32 22.6667 20.4534 23.4134 22.2 24.6667C20.4534 25.9201 18.32 26.6667 16 26.6667C13.68 26.6667 11.5467 25.9201 9.80002 24.6667ZM24.1867 22.8267C21.9334 21.0667 19.0934 20.0001 16 20.0001C12.9067 20.0001 10.0667 21.0667 7.81335 22.8267C6.26669 20.9734 5.33335 18.6001 5.33335 16.0001C5.33335 10.1067 10.1067 5.33341 16 5.33341C21.8934 5.33341 26.6667 10.1067 26.6667 16.0001C26.6667 18.6001 25.7334 20.9734 24.1867 22.8267Z" fill="white"/>
<path d="M16 8.00008C13.4267 8.00008 11.3334 10.0934 11.3334 12.6667C11.3334 15.2401 13.4267 17.3334 16 17.3334C18.5734 17.3334 20.6667 15.2401 20.6667 12.6667C20.6667 10.0934 18.5734 8.00008 16 8.00008ZM16 14.6667C14.8934 14.6667 14 13.7734 14 12.6667C14 11.5601 14.8934 10.6667 16 10.6667C17.1067 10.6667 18 11.5601 18 12.6667C18 13.7734 17.1067 14.6667 16 14.6667Z" fill="white"/>
</svg>
