<svg width="97" height="96" viewBox="0 0 97 96" fill="none" xmlns="http://www.w3.org/2000/svg">
<path d="M40.5721 4.50052L54.0121 2.66783V15.0189H52.5721C50.1863 15.0189 48.2521 16.9531 48.2521 19.3389V26.0589C48.2521 28.4448 50.1863 30.3789 52.5721 30.3789H54.0121V88.7681L40.5721 90.6008V73.5789H42.0121C44.398 73.5789 46.3321 71.6448 46.3321 69.2589V62.5389C46.3321 60.1531 44.398 58.2189 42.0121 58.2189H40.5721V4.50052Z" fill="white"/>
<path d="M58.3321 30.3789V88.179L69.7827 86.6176C75.8196 85.7944 80.7596 84.0838 84.6028 81.4857C88.446 78.8876 91.1792 75.6981 92.8024 71.9173C94.4482 68.1053 94.9653 63.9568 94.3537 59.4718C93.7871 55.3169 92.4594 51.8544 90.3706 49.0842C88.2781 46.2865 85.7656 44.2328 82.8333 42.923C80.0698 41.6741 77.2234 41.1461 74.2939 41.339C74.0396 41.3558 73.8124 41.1757 73.778 40.9232C73.7481 40.7041 73.8733 40.4936 74.0785 40.4112C76.6478 39.3789 78.8721 37.9706 80.7516 36.186C82.7388 34.2894 84.1934 32.017 85.1156 29.3688C86.034 26.6931 86.2681 23.7042 85.8179 20.4023C85.2401 16.1649 83.7324 12.5588 81.2948 9.58392C78.8535 6.58156 75.5255 4.42882 71.3108 3.12571C67.6369 1.98983 63.3107 1.65631 58.3321 2.12514V15.0189H59.2921C61.678 15.0189 63.6121 16.9531 63.6121 19.3389V26.0589C63.6121 28.4448 61.678 30.3789 59.2921 30.3789H58.3321Z" fill="white"/>
<path d="M23.2921 6.85683L36.2521 5.0896V58.2189H35.2921C32.9063 58.2189 30.9721 60.1531 30.9721 62.5389V69.2589C30.9721 71.6448 32.9063 73.5789 35.2921 73.5789H36.2521V91.1899L23.2839 92.9582C23.2893 92.8992 23.2921 92.8394 23.2921 92.7789V48.6189H24.7321C27.118 48.6189 29.0521 46.6848 29.0521 44.2989V37.5789C29.0521 35.1931 27.118 33.2589 24.7321 33.2589H23.2921V6.85683Z" fill="white"/>
<path d="M9.76411 8.70153L19.4521 7.38046V33.2589H18.0121C15.6263 33.2589 13.6921 35.1931 13.6921 37.5789V44.2989C13.6921 46.6848 15.6263 48.6189 18.0121 48.6189H19.4521V92.7789C19.4521 92.9626 19.4779 93.1402 19.5261 93.3084C14.9934 93.0926 11.1167 89.6732 10.4815 85.0151L1.5492 19.5106C0.832843 14.2572 4.51079 9.41787 9.76411 8.70153Z" fill="white"/>
</svg>
